<?xml version="1.0"?><svg version="1.2" baseProfile="tiny-ps" viewBox="0 0 300 300" xmlns="http://www.w3.org/2000/svg" xmlns:xlink="http://www.w3.org/1999/xlink"><title>Taply</title><g><g fill="#fbfcfc" transform="matrix(.1 0 0 -.1 0 300)"><path d="M0 1500V0h3000v3000H0V1500z"/></g><g fill="#01c7fe" transform="matrix(.1 0 0 -.1 0 300)"><path d="M0 1500V0h3000v3000H0V1500zm1700 340v-59l-67-3-68-3-3-207-2-208h-130v420h-140v120h410v-60z"/></g><g fill="#0088f8" transform="matrix(.1 0 0 -.1 0 300)"><path d="M0 1500V0h3000v3000H0V1500zm1100 1328c25-6 47-12 49-14s-43-54-101-116c-226-246-351-410-482-636l-48-82-36 29c-21 16-47 40-60 54l-23 25 56 108c100 192 210 347 389 552l91 104 60-7c33-3 80-11 105-17zm-337-47 7-7-36-42c-19-23-39-42-43-42s-18 10-31 22l-23 22 39 33 39 33 20-6c11-4 23-9 28-13zm-236-247 23-35-39-57c-21-31-59-94-85-139-26-46-50-83-52-83s-13 19-25 42l-21 41 17 36c22 48 144 231 153 231 4-1 17-17 29-36zm492-239c55-33 101-65 101-71 0-5-14-23-31-40-29-27-144-161-196-227l-22-28-86 57c-47 31-88 61-91 65l-5 9 32 47c66 98 184 253 190 251 4-2 52-30 108-63zm1394-109c118-180 203-360 288-605l52-151-28-37c-36-48-107-123-117-123-4 0-8 7-8 15 0 27-129 404-177 519-45 106-99 217-177 358l-36 67 52 20c29 11 63 20 75 20l22 1 54-84zm194 2c30-48 124-230 121-233-2-1-22-5-45-9l-43-6-41 82c-23 46-56 108-75 139s-34 59-34 63c0 3 20 6 45 6h45l27-42zm-370-245c25-54 58-129 74-168l28-70-17-13c-25-19-203-114-206-110-2 2-23 64-48 138s-54 157-64 184l-19 49 10 4c6 2 46 21 90 43 44 21 86 39 93 39l13 1 46-97zm-1998 6 10-30-17 3-17 3-3 34-3 33 9-6c6-3 15-20 21-37zm1461-109v-59l-67-3-68-3-3-207-2-208h-130v420h-140v120h410v-60zm1107-152 5-43-21-19-21-19-5 14c-22 62-35 103-32 105 1 2 14 7 27 12l25 10 9-8c4-5 10-28 13-52zM1365 990c17 0 41-3 54-7l24-6-5-109c-3-60-9-112-12-116l-7-6-162 18c-89 9-172 20-184 23l-23 5v83c0 45 3 102 6 127l6 44 137-27c75-16 150-28 166-29zM640 754c333-73 515-99 776-110l165-7-5-13c-2-6-10-39-16-72l-12-60-126-7-127-8-115 7c-159 10-447 52-551 82l-16 4-13 28c-16 35-60 163-60 175v9l18-7c9-3 46-13 82-21zm233-314 8-7-7-27-6-26h-18c-10 0-34 7-54 15l-36 15v52l53-7c28-4 56-10 60-15zm565-45c1-1-8-17-21-36l-23-34-99-3c-55-2-128 0-161 3l-62 6 17 39 16 39 165-6c91-3 166-7 168-8z"/></g><g fill="#106aa6" transform="matrix(.1 0 0 -.1 0 300)"><path d="M0 1500V0h3000v3000H0V1500zm1098 1329c29-7 51-16 50-20-2-4-42-49-89-100-135-147-184-205-281-332-83-109-248-367-248-388 0-20-28-6-79 41l-55 48 19 44c83 187 246 422 454 657l66 73 55-5c30-4 79-12 108-18zm-350-35c12-4 22-11 22-16 0-12-71-88-82-88-4 0-18 10-30 22l-22 22 39 33c42 36 40 35 73 27zm827-69-30-14-35 1-35 1 42 6c24 4 46 10 49 14 4 4 14 7 23 6l16-1-30-13zm318 8c-7-2-19-2-25 0l-13 5h50l-12-5zm-113-17c66-17 150-48 150-56 0-4-25-14-55-24l-54-17-59 30c-32 16-75 33-96 36l-37 7 6 7c8 7 66 29 80 30 6 0 35-6 65-13zm-330-21-25-14 37-1c20 0 44-3 53-6l17-7-45-28-44-27-39 9c-22 4-51 9-65 9h-27l-77-55c-43-31-82-54-87-53l-9 3 45 35 46 34-11 7-12 7 67 32c76 36 163 68 186 69h15l-25-14zm742-68c52-29 186-135 187-147 1-3-21-5-49-4l-50 2-52 47c-29 26-82 67-118 91l-65 44h90l57-33zm-544 10 23-13-50-32c-54-35-63-37-93-21l-21 11 54 34c62 38 57 37 87 21zM527 2535l23-34-59-93c-32-51-71-117-86-147l-27-55-24 40c-13 21-24 45-24 53 0 32 149 271 168 271 4 0 17-16 29-35zm623 32c0-2-10-12-22-23l-23-19 19 23c18 21 26 27 26 19zm1015-69 76-71-13-7c-7-4-41-15-74-25l-62-18-76 79c-41 43-74 79-72 81 9 10 86 32 112 32l32 1 77-72zm-264-48c49-49 93-98 99-109l10-21-80-40c-44-22-84-40-89-40s-22 21-39 48c-16 26-52 76-81 110-29 35-50 66-47 69 11 12 121 72 130 73 5 0 49-40 97-90zm-880-156 108-66-82-92c-46-50-102-117-126-148-24-32-46-58-49-58s-48 28-99 61l-93 62 67 96c66 95 155 211 162 211 2 0 52-30 112-66zm1390-96c113-176 219-403 299-641l43-127-27-38c-15-20-46-59-71-86l-44-49-5 14c-134 432-235 677-365 889l-40 65 8 7c9 10 112 46 133 47l16 1 53-82zm161 33 23-9 68-129c37-72 67-134 67-139v-9l-45-2-45-2-31 62c-17 34-53 99-80 143-27 45-49 85-49 88 0 9 66 7 92-3zm-346-258c20-43 54-120 76-172l39-94-13-13c-16-15-208-118-212-113-1 2-23 63-48 134-25 72-55 154-66 182l-22 53 98 49c53 28 100 50 104 50 4 1 23-34 44-76zM253 1863c-8-30-17-95-21-146l-8-92-23 45-24 44 6 96c3 52 11 119 17 149l12 53 28-48 27-48-14-53zm171-131c-12-42-25-89-29-104-3-16-9-28-13-28s-29 21-54 48l-47 47 10 55c6 30 17 79 25 108l15 52 58-50 58-51-23-77zm1276 108v-59l-67-3-68-3-3-207-2-208h-130v420h-140v120h410v-60zM638 1701c28-19 52-38 52-43s-11-30-24-56c-12-26-36-81-51-122-16-41-30-77-31-79-2-2-33 14-69 35l-65 38v16c0 25 28 129 56 207l26 71 27-17c14-9 50-32 79-50zm2166 27c3-13 6-39 6-58v-35l-21-13c-25-16-22-18-38 37-7 23-15 49-18 57l-5 14 23 9c13 5 29 10 35 10l12 1 6-22zM377 1367c6-53 14-101 18-107l6-10h-9c-4 0-21 13-36 29l-27 28-19 61c-11 34-22 85-26 114l-7 53 44-36 43-36 13-96zm-127 68v-10l-10 15c-5 8-10 20-10 25v10l10-15c5-8 10-19 10-25zm2147-27-5-13-1 19c-1 11 2 17 5 13 3-3 4-12 1-19zm-4-100 10-6-7-74c-3-40-12-100-18-133l-12-60-6 30-5 30-22-38c-12-20-27-37-33-37h-10v91l40 50 40 51v31c0 18-5 60-10 95l-11 63 8 12 8 12 8-55 9-55 11-7zm-1888-19 55-31v-58l-50 25-51 26-9 25c-11 28-13 44-5 44 3 0 30-14 60-31zm-22-187 22-22 3 9c2 5-6 28-18 51l-21 41 51-26c27-14 50-29 50-34s10-32 22-60l23-51 73-35c40-19 77-35 81-35 5 0 14-7 21-15 16-19 11-19-49 5l-50 19-3-9-3-10-65 44c-64 43-148 120-202 186-41 48-34 52 8 5 19-22 45-50 57-63zm1731-173c-9-11-21-19-26-19h-8v129l23 16 22 15 3-61 3-61-17-19zm-1019 92c55-11 123-23 150-26 28-4 63-9 78-12l28-5-6-91c-4-51-8-102-11-114l-4-23h-46c-44 0-265 25-311 35l-23 5v108c0 59 3 117 6 130l6 23 17-5c9-3 61-14 116-25zm855-110v-78l-69-22c-78-24-220-51-224-42-1 3-1 47 1 97l3 92 87 6c48 4 103 11 122 16 19 4 45 8 58 9l22 1v-79zm277 27-5-13-1 19c-1 11 2 17 5 13 3-3 4-12 1-19zM780 890l15-10h-10c-5 0-17 5-25 10l-15 10h10c6 0 17-5 25-10zm1485-33-7-34-43-49c-23-27-64-64-91-83l-48-35 8 19c4 11 10 38 13 62l6 43 67 45c37 25 73 52 80 60 18 22 22 13 15-28zM840 870l15-10h-10c-5 0-17 5-25 10l-15 10h10c6 0 17-5 25-10zM663 750c143-33 348-69 485-85l127-15h308l-6-42c-4-24-11-59-17-79l-10-37-23-6c-12-3-99-6-192-6h-170l-130 15c-138 16-389 62-416 76l-17 9-31 85c-17 47-31 93-31 101v15l18-5c9-3 57-15 105-26zm1301-87c-7-32-13-61-14-65 0-4-13-14-29-23-35-18-181-59-187-52-3 2 2 36 11 74l16 70 92 25c51 14 99 26 109 27l16 1-14-57zm41-141-27-40-66-35c-78-40-190-82-198-74-3 3 5 22 19 44l24 38 84 29c46 16 106 42 134 57 27 15 51 26 53 24s-8-21-23-43zM878 428c2-9-2-26-8-37l-10-20-48 18-47 19-3 29-3 30 58-11 58-12 3-16zm550-59c-12-22-31-45-42-51l-19-11-116 7c-64 4-130 9-147 12l-32 6 17 39 16 39h346l-23-41z"/></g><g fill="#01324a" transform="matrix(.1 0 0 -.1 0 300)"><path d="M0 1500V0h3000v3000H0V1500zm1088 1335c35-7 66-16 70-19l6-7-71-72c-185-190-364-417-485-619-42-70-78-133-80-139l-4-12-19 11c-11 6-42 33-68 60l-48 49 51 99c98 187 256 408 434 607l61 68 45-7c25-3 73-12 108-19zm-308-55c-1-3-21-27-45-55l-44-50-25 24c-14 14-26 29-26 36 0 6 18 25 40 42l41 31 29-11c17-6 30-14 30-17zm800-60-45-19h-37l-37-1-6-10-6-10h39c21 0 42-3 46-7l6-7-45-28-45-28-72 6-73 5-75-55c-68-51-100-67-100-50 0 4 17 22 38 42 43 40 28 31-46-26-30-23-59-42-65-42h-12l45 39c60 53 186 123 288 160l83 31 32 1c18 0 41 4 52 9s34 9 50 9h30l-45-19zm355 10 6-10-33 1c-18 1-44 5-58 9l-25 8 52 1 52 1 6-10zm-135-14c30-8 78-24 105-36l50-22-66-23-67-23-58 29c-32 17-78 35-101 41-51 12-54 22-10 36 46 14 85 14 147-2zm331-56c49-14 142-75 209-138l55-51-59-1h-58l-57 53c-31 28-85 70-119 92s-62 43-62 48c0 10 48 9 91-3zm-473-24 23-12-38-26c-21-13-48-30-60-37l-23-12-32 17-31 16 54 34c59 37 73 39 107 20zm-1148-65c0-5 11-23 25-39l25-30-49-73c-26-41-67-109-91-152l-42-78-15 20c-7 11-21 37-29 56l-15 36 42 72c23 40 62 100 87 135 43 58 62 74 62 53zm1660-70 85-79-15-5c-8-3-44-15-80-26l-64-21-83 82c-45 45-80 84-78 86 8 8 110 41 130 41l20 1 85-79zm-268-43c44-45 88-94 99-109l20-28-83-43c-46-24-88-44-94-46l-11-3-41 64c-23 36-62 87-87 115-25 27-45 52-45 55 0 11 125 77 144 77h19l79-82zm-876-160c57-35 104-66 104-70s-23-32-51-62c-28-31-85-98-127-148-41-51-78-93-81-93-13 0-191 120-191 128 0 12 49 83 139 204l76 102 14 1c7 0 60-28 117-62zm1392-100c115-178 206-373 293-627l49-144-39-51c-44-57-109-122-114-115-2 2-30 84-61 181-92 289-182 499-296 692-43 73-58 106-47 106 1 0 34 11 72 25 39 13 73 25 76 25 4 0 34-42 67-92zm167 34c20-13 161-279 153-287-2-2-25-5-51-6l-48-3-51 94c-28 52-66 118-84 147-19 30-34 56-34 58 0 8 104 5 115-3zm-350-265c24-51 59-132 78-179l35-87-11-10c-7-5-60-34-119-65l-106-57-12 38c-6 21-37 107-67 191s-53 156-49 159c5 5 194 100 204 102 2 1 23-41 47-92zm-1990-1 26-49-12-56c-7-31-17-101-23-156l-12-100-28 60-29 60 11 110c11 104 29 192 38 183 2-2 15-26 29-52zm205-161c0-5-11-46-25-90s-25-88-25-97-4-19-9-22l-9-6-51 46-51 46v27c0 24 31 162 45 199l5 13 60-53c33-29 60-57 60-63zm1255 35v-65l-67-3-68-3-2-207-3-207h-140l-3 208-2 207h-130v140l208-2 207-3v-65zM617 1719c43-28 79-52 81-54s-14-41-36-87c-22-45-47-107-57-136l-17-52-57 31c-32 17-65 37-74 44l-16 11 14 65c19 92 67 229 80 229 2 0 39-23 82-51zm2197-22 8-48-23-25c-12-13-25-24-29-24-7 0-40 100-40 123v16l18 4c9 3 26 4 37 4l20-2 9-48zM331 1498l49-41v-51c0-46 11-108 27-160l6-20-43 34-42 33-10 26c-13 34-35 125-43 179l-7 42h7c3 0 29-19 56-42zm2078-170c1-78-14-197-34-265-19-68-54-165-61-172-11-11 7 93 20 114 7 11 15 30 18 43l6 22h-8c-5 0-11-8-15-19-3-10-14-26-25-36l-20-18v41c0 22-2 46-5 54l-5 13 41 55 41 55-6 100-6 100 9 14 9 15 7-40c10-64 13-70 13-39 1 17-3 50-7 73l-9 44 6 21 6 22 12-65c7-36 13-95 13-132zM249 1454c23-45 24-67 3-41-7 7-18 30-27 50l-15 37h8c5 0 19-21 31-46zm319-222 3-32h-13c-7 0-35 13-63 28l-50 27-3 39-3 39 63-35 63-35 3-31zm-108-99c10-18 24-33 29-33h10l-15 36c-8 20-13 38-11 41 3 2 28-7 56-21l51-26v-15c0-8 10-35 22-59l21-45 87-40 87-39 6-16c8-20 8-20-53 4-28 11-49 16-46 11s40-21 81-36 80-33 85-40l11-13-23 5c-90 22-276 135-363 221-56 54-135 147-135 157 0 14 81-61 100-92zm1780-127v-65l-27-21-28-22-6 69-6 68 20 18c10 9 25 17 33 17h14v-64zm-1059 23c57-12 140-27 184-33l80-11 4-25c1-14 0-67-4-119l-7-94-112 6c-61 3-148 11-193 18l-83 12v267h14c7 0 60-10 117-21zm877-96 3-59-9-25-10-25-53-17c-64-19-192-47-221-47h-21l7 97c4 54 9 99 11 101 1 2 47 8 101 13 54 6 114 14 133 19 20 4 41 7 46 6l10-3 3-60zm217-62-7-40-39-49c-31-40-137-132-152-132-3 0 22 133 26 136 52 31 119 80 141 103 16 17 31 29 34 27 2-3 1-23-3-45zM687 750c270-62 575-100 811-100h93l-7-36c-4-20-12-57-18-83l-12-46-105-8-104-8-115 6c-152 7-336 31-495 63l-130 27-31 85c-18 47-35 95-39 108l-6 22h15c8 0 72-13 143-30zm1289-59c-3-22-12-56-18-77l-13-38-85-27c-47-14-98-29-114-33l-28-7 7 28c4 15 13 53 19 83l12 54 92 22c51 11 95 24 99 28 3 3 13 6 21 6h15l-7-39zm210-19c-24-38-46-61-46-47 0 8 30 55 48 78 26 30 25 11-2-31zm-172-147-29-45-75-39c-69-35-187-81-210-81h-9l30 49 31 49 86 31c48 18 112 45 142 60 30 16 57 27 59 25 2-1-10-24-25-49zM830 459l50-11v-26c0-15-4-33-9-41l-9-15-40 13c-56 19-61 23-68 59l-6 32h15c9 0 39-5 67-11zm620-52c0-15-28-62-49-81l-21-19-150 6c-82 3-153 8-158 11l-9 5 20 44 20 44 174-1 173-1v-8z"/></g><g fill="#00080a" transform="matrix(.1 0 0 -.1 0 300)"><path d="M0 1500V0h3000v3000H0V1500zm1066 1344c44-9 84-19 91-23l12-6-50-55c-314-347-426-495-565-747-16-29-31-53-34-53s-33 25-67 56l-63 56v15c0 22 90 189 157 293 94 145 223 308 337 428l50 52h27c15 0 62-7 105-16zm-305-49 30-16-43-49-43-49-16-1h-16l-24 26-24 26 44 39c49 44 51 45 92 24zm979-45-25-7 30-8c17-4 46-11 67-16 20-5 62-21 95-35l58-26-65-24c-36-13-69-24-75-24-5 0-32 12-60 25-27 14-74 33-102 41-29 9-53 19-53 23 0 5 21 15 48 24l47 16h-30c-16 1-54-8-83-19s-67-20-85-20h-32l15-10c8-5 25-10 38-10 35 0 26-13-32-48l-55-32-43 10c-24 5-53 10-65 10h-21l-73-55-72-55h-56l-55-29c-31-16-56-25-56-21 0 14 151 126 228 167l77 43 90 29c116 38 223 57 330 58l40 1-25-8zm216-19 19-12-78 4-78 4-12 13-12 12 71-4 71-5 19-12zm223-85c74-38 221-155 221-177v-7l-67 5-68 6-55 51c-30 28-85 71-122 95-38 24-68 45-68 47s25 4 55 4h56l48-24zm-524-1 37-16-12-14c-7-8-17-15-22-15s-29-14-54-31l-44-30-30 18-30 17 3 11c3 8 104 75 113 75 1 0 18-7 39-15zm-1133-83c10-15 23-34 29-43l12-17-55-88c-31-49-71-116-89-149s-34-62-37-65c-2-3-15 9-28 25l-24 30-6 32-6 31 43 74c47 80 129 198 138 198 3 0 14-12 23-28zm1599-9c57-49 129-123 129-132 0-8-133-51-155-51-13 0-165 152-165 166v11l68 21c37 11 70 21 73 21 3 1 25-16 50-36zm-268-40c55-49 167-176 167-188 0-8-124-78-181-103-4-2-23 23-42 55-20 32-59 85-86 118-28 32-51 64-51 70v11l68 37c37 20 71 37 76 37s27-17 49-37zm-818-215c55-34 102-63 104-64 2-2-25-36-61-76-35-40-95-110-132-155-37-46-72-83-77-83-12 0-185 116-193 128l-5 9 49 72c57 82 134 185 164 219l20 23 16-6c8-4 60-34 115-67zm1386-96c78-120 139-236 197-372 55-128 142-372 142-398v-17l-70-82c-39-46-75-83-80-83h-9l-41 133c-100 315-185 521-302 725l-70 124 8 8c12 11 124 48 149 49l20 1 56-88zm186 12c28-35 133-244 133-264v-15l-55-2-54-3-46 92c-26 50-64 118-85 152l-39 60 6 9 6 9 55-4 55-5 24-29zm-354-276c59-131 97-223 97-238 0-10-193-118-226-126l-21-5-12 46c-6 26-36 112-66 192s-55 147-55 149c0 6 203 102 216 103l11 1 56-122zm-2005 37 30-55-14-58c-8-31-17-101-20-155l-7-98-11 4c-6 2-21 21-33 43l-23 39v163l15 76c13 71 21 96 30 96 2 0 17-25 33-55zm1312 24 50-11 52-39 52-39 13-47c6-27 12-67 13-89v-42l-24-83c-34-118-59-171-100-217l-36-39v-43h-160v33l-35 38c-45 50-67 95-100 204l-27 89v123l11 21c6 11 11 30 11 41v21h12c7 0 26 13 43 30l30 29 55 15c68 18 77 19 140 5zM453 1800c-3-19-55-214-59-219-6-8-113 90-119 109l-6 19 20 83c11 46 24 96 30 112l11 29 63-59 62-59-2-15zm177-83c41-27 76-50 78-51 1-2-13-34-32-72s-45-99-57-136l-24-68-15 1c-8 0-42 17-75 38l-60 38-3 22-4 22 25 87c14 48 35 109 46 135l21 48 12-7c7-5 47-30 88-57zm2179 21c4-13 11-40 14-60l6-38-26-20c-15-11-31-19-37-17-10 3-44 91-45 119l-1 16 28 10c15 6 33 11 40 11l12 1 9-22zm-414-232 15-78v-233l-19-85c-23-101-58-205-95-277-25-50-46-73-32-35l7 17-68-66c-37-36-83-76-102-89l-34-24 7 35c3 19 9 51 13 73l6 38 46 32c25 17 67 51 93 75 27 24 51 42 53 39 3-3 1-27-5-53s-9-50-6-52c9-9 23 33 30 87 4 30 16 75 27 100l19 45-27-33c-16-18-31-32-35-32h-8v125l28 35c16 19 34 45 41 58l13 23-12 90-12 90 17 25 17 26v64c1 35 3 62 5 60s10-38 18-80zm-2062-3 46-42 7-73c4-40 12-92 19-115l13-43h-12c-7 0-21 9-32 21-10 11-27 25-37 31l-19 10 10-19c6-10 36-39 66-63 31-25 59-52 62-62 2-9 12-22 20-29l15-13-17 37c-10 20-15 39-12 42s31-7 62-22l57-28 6-25c3-14 14-41 24-61l18-36 85-38 84-38 12-23c11-20 85-74 120-87l15-5-17-1c-52-3-239 89-350 171l-68 50-73 81c-78 86-137 164-137 179 0 5 4 7 8 4 5-3-2 31-15 76l-23 80v90l9-4c5-1 29-22 54-45zm-90-26c13-23 28-58 31-77l7-35-17 20c-20 25-64 115-64 133v13l9-5c5-3 20-25 34-49zm327-248v-39h-7c-5 0-35 15-68 33l-60 32-3 43-3 43 70-36 71-37v-39zm1674-171c3-13 6-44 6-70v-47l-26-20c-15-12-33-21-40-21h-14v149l28 15c36 20 39 20 46-6zm-1054-27c58-11 140-25 183-32 43-6 80-15 82-20 6-9-12-230-20-237-7-7-250 15-332 29l-63 11v123c0 68 3 131 6 139l6 17 17-5c9-3 63-14 121-25zm868-118-3-88-55-18c-30-10-97-27-149-38l-94-20-7 8-7 8 6 100 6 100 75 7c41 4 100 11 130 16s65 10 78 11l23 1-3-87zM605 774c109-27 298-64 430-85l130-20 213-6 212-6v-19c0-10-7-50-16-87l-15-69-37-6c-59-9-330-7-443 4-142 14-464 70-474 82-19 24-75 181-75 210 0 21-1 21 75 2zm1379-72c-3-15-12-50-20-79l-14-52-97-31c-54-16-107-30-120-30h-22l14 48c7 26 16 63 19 83l6 37 93 22c50 12 101 26 112 30s23 6 28 3l7-4-6-27zm227-1c-23-45-69-101-82-101h-9l19 39c23 45 69 101 82 101h9l-19-39zm-171-143c-7-12-24-38-37-56l-24-32-77-39c-75-37-210-87-217-79-2 2 12 28 31 58l34 54 88 31c48 17 114 45 147 62s61 30 63 28-2-14-8-27zM840 462l45-8-1-38c-1-20-6-42-11-47l-10-10-55 21-56 21-4 35c-5 41-2 45 26 39 12-3 41-9 66-13zm620-52c0-4-15-30-32-56l-33-49-59-3c-59-3-265 14-274 22-2 3 5 25 17 50l22 45 180-1 179-1v-7z"/></g></g></svg>